<svg xmlns="http://www.w3.org/2000/svg"
 xmlns:xlink="http://www.w3.org/1999/xlink"
 width="28px" height="33px"  viewBox="0 0 28 33">
<path fill-rule="evenodd"  fill="#222222"
 d="M25.630737,7.060463 C26.001465,7.4322205 26.187622,7.8718033 26.187622,8.378983 C26.187622,8.378983 26.187622,29.941452 26.187622,29.941452 C26.187622,30.487976 26.001465,30.937462 25.630737,31.289177 C25.259277,31.640656 24.819702,31.816391 24.3125,31.816391 C24.3125,31.816391 3.687378,31.816391 3.687378,31.816391 C3.1795654,31.816391 2.7398682,31.640656 2.3691406,31.289177 C1.9973145,30.937462 1.8126221,30.487976 1.8126221,29.941452 C1.8126221,29.941452 1.8126221,8.378983 1.8126221,8.378983 C1.8126221,7.8718033 1.9973145,7.4322205 2.3691406,7.060463 C2.7398682,6.6896744 3.1795654,6.5037994 3.687378,6.5037994 C3.687378,6.5037994 9.371216,6.5037994 9.371216,6.5037994 C9.371216,6.5037994 9.371216,4.74617 9.371216,4.74617 C9.371216,3.965248 9.643921,3.3013992 10.191528,2.75391 C10.738159,2.2073822 11.401855,1.9336357 12.183472,1.9336357 C12.183472,1.9336357 15.875,1.9336357 15.875,1.9336357 C16.656006,1.9336357 17.319702,2.2073822 17.86731,2.75391 C18.413818,3.3013992 18.687622,3.965248 18.687622,4.74617 C18.687622,4.74617 18.687622,6.5037994 18.687622,6.5037994 C18.687622,6.5037994 24.3125,6.5037994 24.3125,6.5037994 C24.819702,6.5037994 25.259277,6.6896744 25.630737,7.060463 ZM11.245972,6.5037994 C11.245972,6.5037994 16.8125,6.5037994 16.8125,6.5037994 C16.8125,6.5037994 16.8125,4.74617 16.8125,4.74617 C16.8125,4.473152 16.724487,4.248169 16.548706,4.0721893 C16.372925,3.8964462 16.147827,3.8085785 15.875,3.8085785 C15.875,3.8085785 12.183472,3.8085785 12.183472,3.8085785 C11.910034,3.8085785 11.685547,3.8964462 11.509766,4.0721893 C11.333984,4.248169 11.245972,4.473152 11.245972,4.74617 C11.245972,4.74617 11.245972,6.5037994 11.245972,6.5037994 ZM24.3125,8.378983 C24.3125,8.378983 18.687622,8.378983 18.687622,8.378983 C18.687622,8.378983 18.687622,10.312592 18.687622,10.312592 C18.687622,10.312592 18.687622,10.546989 18.687622,10.546989 C18.648193,10.703415 18.55017,10.860085 18.394653,11.015541 C18.238037,11.172211 18.022827,11.249939 17.750122,11.249939 C17.085327,11.249939 16.773193,10.937813 16.8125,10.312592 C16.8125,10.312592 16.8125,8.378983 16.8125,8.378983 C16.8125,8.378983 11.245972,8.378983 11.245972,8.378983 C11.245972,8.378983 11.245972,10.312592 11.245972,10.312592 C11.245972,10.312592 11.245972,10.546989 11.245972,10.546989 C11.245972,10.703415 11.158203,10.860085 10.982422,11.015541 C10.806641,11.172211 10.562256,11.249939 10.250122,11.249939 C9.624756,11.249939 9.331787,10.937813 9.371216,10.312592 C9.371216,10.312592 9.371216,8.378983 9.371216,8.378983 C9.371216,8.378983 3.687378,8.378983 3.687378,8.378983 C3.687378,8.378983 3.687378,29.941452 3.687378,29.941452 C3.687378,29.941452 24.3125,29.941452 24.3125,29.941452 C24.3125,29.941452 24.3125,8.378983 24.3125,8.378983 Z"/>
</svg>