<svg xmlns="http://www.w3.org/2000/svg"
 xmlns:xlink="http://www.w3.org/1999/xlink"
 width="17px" height="16px"  viewBox="0 0 17 16">
<path fill-rule="evenodd"  fill="#222222"
 d="M14.911133,14.6856 C14.716492,14.871719 14.526001,14.871719 14.339905,14.6856 C14.339905,14.6856 10.379028,10.724731 10.379028,10.724731 C9.430847,11.554176 8.322327,11.968658 7.0527344,11.968658 C5.647461,11.968658 4.4501953,11.473549 3.4599,10.48333 C2.4696045,9.493111 1.9747925,8.295776 1.9747925,6.8905945 C1.9747925,5.4858932 2.4696045,4.2880707 3.4599,3.2978516 C4.4501953,2.3076324 5.647461,1.8125229 7.0527344,1.8125229 C8.457703,1.8125229 9.655334,2.3076324 10.64563,3.2978516 C11.635559,4.2880707 12.130737,5.4858932 12.130737,6.8905945 C12.130737,8.109413 11.74115,9.19281 10.962952,10.140541 C10.962952,10.140541 14.8984375,14.127007 14.8984375,14.127007 C15.101685,14.313118 15.105408,14.499001 14.911133,14.6856 ZM11.343628,6.8905945 C11.343628,5.706047 10.924866,4.6986923 10.087097,3.8692398 C9.248901,3.040039 8.241821,2.6250763 7.0654297,2.6250763 C5.888733,2.6250763 4.881958,3.040039 4.0438232,3.8692398 C3.2059937,4.6986923 2.7872314,5.706047 2.7872314,6.8905945 C2.7872314,8.075615 3.2059937,9.082977 4.0438232,9.912178 C4.881958,10.741623 5.888733,11.156349 7.0654297,11.156349 C8.241821,11.156349 9.248901,10.741623 10.087097,9.912178 C10.924866,9.082977 11.343628,8.075615 11.343628,6.8905945 Z"/>
</svg>