<svg xmlns="http://www.w3.org/2000/svg"
 xmlns:xlink="http://www.w3.org/1999/xlink"
 width="63px" height="62px"  viewBox="0 0 63 62">
<path fill-rule="evenodd"  fill="#ffffff"
 d="M19.812439,6.624756 C17.624512,6.7038574 15.749435,7.055176 14.187561,7.6796875 C12.936829,8.148193 11.803619,8.891846 10.788986,9.90625 C9.851456,10.84375 9.1082,11.977051 8.562332,13.3046875 C8.015091,14.9453125 7.7019043,16.820312 7.6251373,18.929688 C7.467514,23.148438 7.3907623,27.172852 7.3907623,30.999756 C7.3907623,34.75 7.467514,38.81299 7.6251373,43.187256 C7.7019043,45.375732 8.053482,47.25049 8.679535,48.8125 C9.1483,50.06299 9.890167,51.196533 10.906174,52.210938 C11.8437195,53.148438 12.975204,53.8916 14.304749,54.4375 C15.94545,54.984863 17.820175,55.298096 19.929626,55.374756 C24.148544,55.53247 28.171127,55.60913 32.000076,55.60913 C35.749893,55.60913 39.811172,55.53247 44.187378,55.374756 C46.37393,55.298096 48.248672,54.94629 49.812607,54.32007 C51.06128,53.851562 52.194824,53.110107 53.21083,52.09375 C54.148376,51.15625 54.889908,50.02466 55.437485,48.695312 C55.983017,47.054443 56.296204,45.179688 56.375015,43.070312 C56.530594,38.851562 56.609406,34.828613 56.609406,30.999756 C56.609406,27.25 56.530594,23.18872 56.375015,18.812256 C56.296204,16.62622 55.944626,14.750977 55.320297,13.1875 C54.851517,11.938721 54.108276,10.805176 53.093643,9.7890625 C52.156097,8.8515625 51.022903,8.109863 49.695404,7.5625 C48.054718,7.0168457 46.17964,6.7038574 44.07019,6.624756 C39.85161,6.4694824 35.826996,6.390625 32.000076,6.390625 C28.249939,6.390625 24.186935,6.4694824 19.812439,6.624756 C19.812439,6.624756 19.812439,6.624756 19.812439,6.624756 ZM44.304565,1.234375 C47.117188,1.3129883 49.53778,1.7431641 51.570145,2.5234375 C53.679596,3.3840332 55.47586,4.555908 56.960983,6.0390625 C58.444046,7.523926 59.615967,9.3203125 60.47641,11.4296875 C61.256653,13.3046875 61.687042,15.727051 61.76552,18.695312 C61.921432,22.914062 61.99991,27.015625 61.99991,30.999756 C61.99991,34.984375 61.921432,39.085938 61.76552,43.304688 C61.687042,46.117188 61.256653,48.53955 60.47641,50.570312 C59.615967,52.679688 58.444046,54.477783 56.960983,55.960938 C55.47586,57.4458 53.679596,58.617676 51.570145,59.476562 C49.695404,60.2583 47.27275,60.68872 44.304565,60.765625 C40.086,60.923096 35.98427,61.0 32.000076,61.0 C28.015549,61.0 23.91417,60.923096 19.695251,60.765625 C16.88298,60.68872 14.460327,60.2583 12.429672,59.476562 C10.320221,58.617676 8.522247,57.4458 7.0391846,55.960938 C5.554062,54.477783 4.382141,52.679688 3.5234222,50.570312 C2.741455,48.695312 2.3114014,46.27466 2.2342987,43.304688 C2.0770264,39.085938 1.9999237,34.984375 1.9999237,30.999756 C1.9999237,27.015625 2.0770264,22.914062 2.2342987,18.695312 C2.3114014,15.8828125 2.741455,13.462158 3.5234222,11.4296875 C4.382141,9.3203125 5.554062,7.523926 7.0391846,6.0390625 C8.522247,4.555908 10.320221,3.3840332 12.429672,2.5234375 C14.304749,1.7431641 16.725357,1.3129883 19.695251,1.234375 C23.91417,1.0786133 28.015549,1.0 32.000076,1.0 C35.98427,1.0 40.086,1.0786133 44.304565,1.234375 C44.304565,1.234375 44.304565,1.234375 44.304565,1.234375 ZM47.468765,30.999756 C47.468765,35.297363 45.96376,38.950195 42.956863,41.95703 C39.948593,44.965576 36.29576,46.46875 32.000076,46.46875 C27.702347,46.46875 24.049515,44.965576 21.042953,41.95703 C18.034683,38.950195 16.531403,35.297363 16.531403,30.999756 C16.531403,26.704346 18.034683,23.05127 21.042953,20.042969 C24.049515,17.036377 27.702347,15.53125 32.000076,15.53125 C36.29576,15.53125 39.948593,17.036377 42.956863,20.042969 C45.96376,23.05127 47.468765,26.704346 47.468765,30.999756 ZM42.078262,30.999756 C42.078262,28.266357 41.082138,25.9021 39.08986,23.910156 C37.097595,21.917969 34.733887,20.921875 32.000076,20.921875 C29.264572,20.921875 26.902222,21.917969 24.910294,23.910156 C22.91803,25.9021 21.921906,28.266357 21.921906,30.999756 C21.921906,33.735596 22.91803,36.097656 24.910294,38.089844 C26.902222,40.08203 29.264572,41.07788 32.000076,41.07788 C34.733887,41.07788 37.097595,40.08203 39.08986,38.089844 C41.082138,36.097656 42.078262,33.735596 42.078262,30.999756 ZM48.054718,11.4296875 C47.038376,11.4296875 46.17964,11.762695 45.4765,12.425537 C44.773346,13.090576 44.42177,13.930664 44.42177,14.9453125 C44.42177,15.961426 44.773346,16.820312 45.4765,17.523193 C46.17964,18.226562 47.038376,18.578125 48.054718,18.578125 C49.069016,18.578125 49.909576,18.226562 50.574356,17.523193 C51.237076,16.820312 51.570145,15.961426 51.570145,14.9453125 C51.570145,13.930664 51.237076,13.090576 50.574356,12.425537 C49.909576,11.762695 49.069016,11.4296875 48.054718,11.4296875 Z"/>
</svg>