<svg xmlns="http://www.w3.org/2000/svg"
 xmlns:xlink="http://www.w3.org/1999/xlink"
 width="18px" height="11px"  viewBox="0 0 18 11">
<path fill-rule="evenodd"  fill="#ffffff"
 d="M16.000008,9.308594 C15.960602,9.562744 15.750893,9.714111 15.370186,9.762451 C14.989143,9.811523 14.59816,9.811523 14.198265,9.762451 C13.797691,9.714111 13.460846,9.738525 13.187401,9.8359375 C13.187401,9.8359375 13.128799,9.8359375 13.128799,9.8359375 C12.562035,9.738525 11.986351,9.3479 11.400391,8.6640625 C11.380859,8.644775 11.292793,8.537109 11.136879,8.341797 C10.980278,8.1467285 10.83876,8.004639 10.711975,7.916748 C10.584503,7.8288574 10.452919,7.795166 10.316536,7.814453 C10.1208725,7.8339844 9.994087,7.946289 9.935486,8.151123 C9.876892,8.356445 9.8426285,8.60083 9.833031,8.883545 C9.82309,9.166992 9.7788925,9.3671875 9.701103,9.484131 C9.564377,9.758057 8.968826,9.845947 7.914093,9.748047 C6.9957504,9.650635 6.2487335,9.391846 5.6727066,8.971436 C5.0966873,8.552002 4.525116,7.9902344 3.9590302,7.2871094 C3.9004364,7.2282715 3.8315582,7.140381 3.7537766,7.0234375 C3.7147064,6.984619 3.6951752,6.955078 3.6951752,6.935547 C3.6365814,6.876953 3.5875778,6.8085938 3.5488586,6.7304688 C3.5094528,6.6914062 3.490265,6.6623535 3.490265,6.642578 C3.4703903,6.623291 3.42173,6.5546875 3.3435974,6.4375 C3.3435974,6.4375 3.2850037,6.3789062 3.2850037,6.3789062 C3.2654724,6.340088 3.2363434,6.286377 3.197281,6.2175293 C3.157875,6.149658 3.128746,6.105713 3.1092148,6.0859375 C3.1092148,6.0859375 2.933426,5.8222656 2.933426,5.8222656 C2.8943634,5.7834473 2.8748322,5.7539062 2.8748322,5.734375 C2.855301,5.715088 2.8309708,5.680664 2.8018417,5.631836 C2.772377,5.583252 2.7477036,5.5490723 2.7285156,5.5290527 C2.7285156,5.51001 2.7185745,5.4902344 2.6993866,5.470703 C2.6993866,5.470703 2.6993866,5.4414062 2.6993866,5.4414062 C2.679512,5.422119 2.655182,5.3876953 2.6260529,5.338623 C2.5965881,5.290283 2.5719147,5.2558594 2.5527267,5.236328 C2.5527267,5.217041 2.5427856,5.19751 2.5235977,5.1777344 C2.5235977,5.1777344 2.5235977,5.1484375 2.5235977,5.1484375 C2.2306213,4.6604004 1.8982315,4.045166 1.5274658,3.3027344 C1.1758881,2.5996094 1.0000992,2.0822754 1.0000992,1.75 C1.1364822,1.6328125 1.6052475,1.5739746 2.4064026,1.5739746 C3.304535,1.5739746 3.8123703,1.6035156 3.9295654,1.6618652 C3.9881592,1.6816406 4.046753,1.7453613 4.1053467,1.8522949 C4.163948,1.9599609 4.2321396,2.1015625 4.310608,2.2773438 C4.3883896,2.453125 4.446991,2.5703125 4.486397,2.628662 C4.642311,3.0 4.8965683,3.4785156 5.248146,4.064453 C5.286865,4.123047 5.3163376,4.1623535 5.335869,4.1816406 C5.335869,4.201172 5.345459,4.2209473 5.3653336,4.23999 C5.3653336,4.2597656 5.384529,4.2890625 5.423935,4.327881 C5.423935,4.327881 5.4530563,4.357422 5.4530563,4.357422 C5.4530563,4.357422 5.5116577,4.4746094 5.5116577,4.4746094 C5.5116577,4.4746094 5.5411224,4.5039062 5.5411224,4.5039062 C5.560318,4.5234375 5.5798492,4.5478516 5.599724,4.5771484 C5.6189117,4.606201 5.628845,4.6311035 5.628845,4.6501465 C5.648041,4.669922 5.692238,4.72876 5.7607727,4.826172 C5.828964,4.9240723 5.8824234,4.9973145 5.921829,5.0458984 C5.9608917,5.0949707 6.014351,5.1533203 6.082878,5.2216797 C6.1510696,5.290283 6.219261,5.338623 6.2881393,5.368164 C6.356331,5.397461 6.420067,5.4023438 6.4786606,5.3828125 C6.732239,5.34375 6.8593674,4.8654785 6.8593674,3.9472656 C6.8593674,3.9472656 6.8593674,3.859375 6.8593674,3.859375 C6.89843,3.0783691 6.839836,2.5407715 6.6835785,2.2480469 C6.6249847,2.1308594 6.4930573,2.0280762 6.2881393,1.9401855 C6.082878,1.8522949 5.9608917,1.7893066 5.921829,1.75 C6.116806,1.3793945 6.713043,1.1933594 7.7088394,1.1933594 C8.861229,1.1933594 9.515381,1.3205566 9.671974,1.5739746 C9.7497635,1.7307129 9.798767,1.9162598 9.818298,2.1308594 C9.837486,2.3459473 9.833031,2.6096191 9.803558,2.921875 C9.774437,3.234375 9.759697,3.4492188 9.759697,3.5664062 C9.740166,3.605713 9.730576,3.6740723 9.730576,3.7714844 C9.730576,3.7714844 9.730576,3.8007812 9.730576,3.8007812 C9.730576,3.8007812 9.730576,4.0351562 9.730576,4.0351562 C9.730576,4.0351562 9.730576,4.09375 9.730576,4.09375 C9.730576,4.09375 9.730576,4.1523438 9.730576,4.1523438 C9.730576,4.1523438 9.730576,4.1816406 9.730576,4.1816406 C9.730576,4.1816406 9.730576,4.2109375 9.730576,4.2109375 C9.730576,4.2109375 9.701103,4.23999 9.701103,4.23999 C9.701103,4.23999 9.701103,4.2695312 9.701103,4.2695312 C9.701103,4.2695312 9.701103,4.298828 9.701103,4.298828 C9.701103,4.298828 9.701103,4.327881 9.701103,4.327881 C9.701103,4.327881 9.701103,4.357422 9.701103,4.357422 C9.701103,4.357422 9.701103,4.3867188 9.701103,4.3867188 C9.701103,4.406494 9.710701,4.4160156 9.730576,4.4160156 C9.730576,4.4160156 9.730576,4.4746094 9.730576,4.4746094 C9.730576,4.4746094 9.730576,4.533203 9.730576,4.533203 C9.730576,4.533203 9.730576,4.591797 9.730576,4.591797 C9.730576,4.591797 9.730576,4.6210938 9.730576,4.6210938 C9.730576,4.6210938 9.730576,4.6501465 9.730576,4.6501465 C9.730576,4.6501465 9.730576,4.6796875 9.730576,4.6796875 C9.730576,4.6796875 9.730576,4.7089844 9.730576,4.7089844 C9.730576,4.7089844 9.730576,4.7382812 9.730576,4.7382812 C9.7497635,4.7382812 9.759697,4.748291 9.759697,4.767578 C9.759697,4.767578 9.759697,4.796875 9.759697,4.796875 C9.759697,4.796875 9.759697,4.826172 9.759697,4.826172 C9.759697,4.826172 9.759697,4.8554688 9.759697,4.8554688 C9.7788925,4.8554688 9.789169,4.8654785 9.789169,4.8845215 C9.789169,4.8845215 9.789169,4.9140625 9.789169,4.9140625 C9.789169,4.9140625 9.789169,4.9433594 9.789169,4.9433594 C9.789169,4.9433594 9.818298,4.972412 9.818298,4.972412 C9.818298,4.972412 9.818298,5.03125 9.818298,5.03125 C9.818298,5.03125 9.847763,5.03125 9.847763,5.03125 C9.847763,5.03125 9.847763,5.060547 9.847763,5.060547 C9.847763,5.060547 9.847763,5.0898438 9.847763,5.0898438 C9.866951,5.0898438 9.876892,5.0998535 9.876892,5.1191406 C9.876892,5.138916 9.88649,5.1484375 9.906364,5.1484375 C9.906364,5.1484375 9.906364,5.1777344 9.906364,5.1777344 C9.906364,5.1777344 9.935486,5.206787 9.935486,5.206787 C9.954674,5.206787 9.964958,5.217041 9.964958,5.236328 C9.964958,5.236328 9.994087,5.265625 9.994087,5.265625 C9.994087,5.265625 10.023552,5.2946777 10.023552,5.2946777 C10.023552,5.2946777 10.052681,5.2946777 10.052681,5.2946777 C10.052681,5.2946777 10.052681,5.3242188 10.052681,5.3242188 C10.071869,5.3242188 10.091743,5.3344727 10.111275,5.3535156 C10.326126,5.314453 10.589638,5.080078 10.902496,4.6501465 C10.921684,4.611328 10.950813,4.57251 10.990219,4.533203 C10.990219,4.533203 11.019684,4.5039062 11.019684,4.5039062 C11.019684,4.484619 11.029282,4.4648438 11.048813,4.4453125 C11.048813,4.4453125 11.107407,4.3867188 11.107407,4.3867188 C11.107407,4.3674316 11.117004,4.3476562 11.136879,4.327881 C11.136879,4.327881 11.136879,4.298828 11.136879,4.298828 C11.136879,4.298828 11.166008,4.2695312 11.166008,4.2695312 C11.166008,4.2695312 11.195473,4.23999 11.195473,4.23999 C11.214661,4.2209473 11.24379,4.172119 11.2831955,4.09375 C11.322258,4.0546875 11.341797,4.0253906 11.341797,4.005615 C11.380859,3.9667969 11.400391,3.9375 11.400391,3.9177246 C11.595367,3.605713 11.82016,3.1757812 12.074074,2.628662 C12.093605,2.5898438 12.132668,2.5019531 12.191269,2.3652344 C12.249863,2.2287598 12.294067,2.1210938 12.323189,2.0429688 C12.352661,1.9650879 12.400978,1.8818359 12.469856,1.7939453 C12.538048,1.7058105 12.60144,1.6525879 12.660034,1.6328125 C12.796417,1.5739746 12.953018,1.5402832 13.128799,1.5300293 C13.304588,1.5205078 13.529037,1.5256348 13.802826,1.5449219 C14.075935,1.5646973 14.271599,1.5739746 14.388786,1.5739746 C14.447388,1.5739746 14.554298,1.5695801 14.710899,1.5595703 C14.867149,1.5500488 14.9987335,1.5449219 15.106331,1.5449219 C15.213593,1.5449219 15.335922,1.5549316 15.472649,1.5739746 C15.609024,1.5939941 15.716621,1.6230469 15.794754,1.6618652 C15.872879,1.701416 15.93148,1.75 15.970543,1.8085938 C16.0682,2.0236816 15.941414,2.433838 15.589836,3.0388184 C15.511711,3.1757812 15.130661,3.6833496 14.447388,4.562256 C14.427513,4.562256 14.417915,4.5820312 14.417915,4.6210938 C14.417915,4.6210938 14.388786,4.6501465 14.388786,4.6501465 C14.388786,4.6501465 14.359322,4.6796875 14.359322,4.6796875 C14.359322,4.6796875 14.300728,4.7382812 14.300728,4.7382812 C14.300728,4.7382812 14.300728,4.767578 14.300728,4.767578 C14.300728,4.767578 14.271599,4.796875 14.271599,4.796875 C14.271599,4.796875 14.213005,4.8554688 14.213005,4.8554688 C14.213005,4.8554688 14.124939,4.9433594 14.124939,4.9433594 C13.71476,5.51001 13.51944,5.890869 13.538979,6.0859375 C13.5581665,6.2424316 13.75383,6.5061035 14.124939,6.876953 C14.769493,7.482666 15.228325,7.9709473 15.502113,8.341797 C15.502113,8.341797 15.502113,8.341797 15.502113,8.341797 C15.853348,8.751953 16.019203,9.074219 16.000008,9.308594 C16.000008,9.308594 16.000008,9.308594 16.000008,9.308594 Z"/>
</svg>