<svg xmlns="http://www.w3.org/2000/svg"
 xmlns:xlink="http://www.w3.org/1999/xlink"
 width="9px" height="15px"  viewBox="0 0 9 15">
<path fill-rule="evenodd"  fill="#ffffff"
 d="M3.129074,13.999756 C3.129074,13.999756 3.129074,8.058594 3.129074,8.058594 C3.129074,8.058594 1.1230927,8.058594 1.1230927,8.058594 C1.1230927,8.058594 1.1230927,5.7478027 1.1230927,5.7478027 C1.1230927,5.7478027 3.129074,5.7478027 3.129074,5.7478027 C3.129074,5.7478027 3.129074,4.046631 3.129074,4.046631 C3.129074,3.081787 3.3956604,2.3330078 3.9288635,1.7998047 C4.4620514,1.2666016 5.185425,1.0 6.099655,1.0 C7.01355,1.0 7.606018,1.0341797 7.877075,1.1013184 C7.877075,1.1013184 7.877075,3.1582031 7.877075,3.1582031 C7.877075,3.1582031 6.658203,3.1582031 6.658203,3.1582031 C6.2178802,3.1582031 5.9173584,3.2512207 5.7569885,3.4375 C5.595932,3.6237793 5.515747,3.9030762 5.515747,4.2753906 C5.515747,4.2753906 5.515747,5.7478027 5.515747,5.7478027 C5.515747,5.7478027 7.800659,5.7478027 7.800659,5.7478027 C7.800659,5.7478027 7.4960175,8.058594 7.4960175,8.058594 C7.4960175,8.058594 5.515747,8.058594 5.515747,8.058594 C5.515747,8.058594 5.515747,13.999756 5.515747,13.999756 C5.515747,13.999756 3.129074,13.999756 3.129074,13.999756 Z"/>
</svg>