<svg xmlns="http://www.w3.org/2000/svg"
 xmlns:xlink="http://www.w3.org/1999/xlink"
 width="15px" height="15px"  viewBox="0 0 15 15">
<path fill-rule="evenodd"  fill="#ffffff"
 d="M4.859268,2.21875 C4.3853607,2.2358398 3.9789581,2.3117676 3.640747,2.4472656 C3.3697052,2.5488281 3.1240082,2.709961 2.904358,2.9294434 C2.7011566,3.1328125 2.5401,3.378418 2.4218903,3.6660156 C2.3033142,4.0214844 2.2354736,4.4277344 2.218689,4.8845215 C2.1847534,5.798828 2.1679688,6.6706543 2.1679688,7.5 C2.1679688,8.3125 2.1847534,9.192871 2.218689,10.140625 C2.2354736,10.614746 2.3115387,11.020996 2.447235,11.359375 C2.5486755,11.630371 2.709381,11.875732 2.929718,12.095703 C3.1329193,12.298828 3.3779297,12.459717 3.6661072,12.578125 C4.021454,12.696777 4.4278564,12.764648 4.8846283,12.78125 C5.798874,12.81543 6.670273,12.832031 7.4998627,12.832031 C8.312332,12.832031 9.1923065,12.81543 10.140457,12.78125 C10.614365,12.764648 11.0204315,12.688232 11.359329,12.552734 C11.630035,12.450928 11.875381,12.290527 12.095718,12.0703125 C12.29892,11.8671875 12.459625,11.621826 12.578201,11.33374 C12.696411,10.978516 12.764267,10.572266 12.781403,10.115234 C12.814972,9.201172 12.832108,8.329346 12.832108,7.5 C12.832108,6.6875 12.814972,5.807617 12.781403,4.859375 C12.764267,4.385742 12.688187,3.9794922 12.552841,3.6403809 C12.451065,3.3701172 12.290009,3.1242676 12.070358,2.9042969 C11.867157,2.7011719 11.62146,2.5405273 11.333969,2.421875 C10.978622,2.303711 10.57222,2.2358398 10.115097,2.21875 C9.201202,2.1850586 8.329117,2.1679688 7.4998627,2.1679688 C6.6874084,2.1679688 5.8070984,2.1850586 4.859268,2.21875 C4.859268,2.21875 4.859268,2.21875 4.859268,2.21875 ZM10.166153,1.0507812 C10.775421,1.0678711 11.299698,1.1611328 11.740372,1.3300781 C12.197144,1.5163574 12.5864105,1.7702637 12.908188,2.0915527 C13.229599,2.41333 13.4835205,2.8024902 13.669937,3.2597656 C13.838867,3.6660156 13.932068,4.190918 13.9492035,4.8339844 C13.982788,5.7478027 13.999924,6.6367188 13.999924,7.5 C13.999924,8.363281 13.982788,9.251709 13.9492035,10.166016 C13.932068,10.7751465 13.838867,11.300293 13.669937,11.740234 C13.4835205,12.1970215 13.229599,12.58667 12.908188,12.908203 C12.5864105,13.229736 12.197144,13.483643 11.740372,13.669922 C11.333969,13.839355 10.809006,13.932617 10.166153,13.949219 C9.251923,13.983154 8.363388,13.999756 7.4998627,13.999756 C6.636688,13.999756 5.7481537,13.983154 4.8339233,13.949219 C4.224655,13.932617 3.6996918,13.839355 3.2597046,13.669922 C2.8025818,13.483643 2.4133148,13.229736 2.0918884,12.908203 C1.7701263,12.58667 1.5162201,12.1970215 1.3301392,11.740234 C1.1605225,11.33374 1.0673218,10.80957 1.0508728,10.166016 C1.0166016,9.251709 1.0001526,8.363281 1.0001526,7.5 C1.0001526,6.6367188 1.0166016,5.7478027 1.0508728,4.8339844 C1.0673218,4.2246094 1.1605225,3.7001953 1.3301392,3.2597656 C1.5162201,2.8024902 1.7701263,2.41333 2.0918884,2.0915527 C2.4133148,1.7702637 2.8025818,1.5163574 3.2597046,1.3300781 C3.6661072,1.1611328 4.190384,1.0678711 4.8339233,1.0507812 C5.7481537,1.0168457 6.636688,1.0 7.4998627,1.0 C8.363388,1.0 9.251923,1.0168457 10.166153,1.0507812 C10.166153,1.0507812 10.166153,1.0507812 10.166153,1.0507812 ZM10.851501,7.5 C10.851501,8.430908 10.5256195,9.222656 9.873871,9.873779 C9.222107,10.525879 8.430893,10.8515625 7.4998627,10.8515625 C6.5688477,10.8515625 5.7772827,10.525879 5.1258698,9.873779 C4.474121,9.222656 4.14859,8.430908 4.14859,7.5 C4.14859,6.569092 4.474121,5.777832 5.1258698,5.1259766 C5.7772827,4.4746094 6.5688477,4.1484375 7.4998627,4.1484375 C8.430893,4.1484375 9.222107,4.4746094 9.873871,5.1259766 C10.5256195,5.777832 10.851501,6.569092 10.851501,7.5 ZM9.683685,7.5 C9.683685,6.9074707 9.467804,6.395508 9.036041,5.963623 C8.6046295,5.5319824 8.092346,5.316162 7.4998627,5.316162 C6.9073944,5.316162 6.395447,5.5319824 5.964035,5.963623 C5.5322723,6.395508 5.316391,6.9074707 5.316391,7.5 C5.316391,8.092529 5.5322723,8.604248 5.964035,9.035889 C6.395447,9.467773 6.9073944,9.683594 7.4998627,9.683594 C8.092346,9.683594 8.6046295,9.467773 9.036041,9.035889 C9.467804,8.604248 9.683685,8.092529 9.683685,7.5 ZM10.978622,3.2597656 C10.7582855,3.2597656 10.57222,3.3320312 10.420074,3.475586 C10.267593,3.6193848 10.191513,3.8017578 10.191513,4.0214844 C10.191513,4.241455 10.267593,4.4277344 10.420074,4.580078 C10.57222,4.732422 10.7582855,4.8085938 10.978622,4.8085938 C11.198273,4.8085938 11.380569,4.732422 11.52449,4.580078 C11.668076,4.4277344 11.740372,4.241455 11.740372,4.0214844 C11.740372,3.8017578 11.668076,3.6193848 11.52449,3.475586 C11.380569,3.3320312 11.198273,3.2597656 10.978622,3.2597656 Z"/>
</svg>